<svg width="12" height="12" viewBox="0 0 12 12" fill="none" xmlns="http://www.w3.org/2000/svg">
<path id="free-icon-spoon-and-fork-5325663 1 (Traced)" fill-rule="evenodd" clip-rule="evenodd" d="M8.77681 0.536684C8.67318 0.587999 7.24036 2.03497 6.72079 2.61298C6.34531 3.0307 6.24718 3.17519 6.17568 3.41579C6.09159 3.69874 6.08464 3.89771 6.14682 4.23963C6.19783 4.51986 6.20071 4.61809 6.16585 4.88629C6.1606 4.92667 6.25701 5.03133 6.56545 5.32006C6.78904 5.52935 7.04855 5.77368 7.14213 5.863L7.3123 6.02539L7.4501 6.00947C7.54602 5.9984 7.67409 6.01082 7.87126 6.05031C8.33988 6.14416 8.71098 6.08506 9.03295 5.86528C9.22369 5.73504 11.3936 3.49387 11.4573 3.36128C11.5382 3.19299 11.5009 2.93962 11.373 2.78823C11.2533 2.64645 10.9798 2.60041 10.8084 2.69318C10.7581 2.72037 10.3899 3.08411 9.99013 3.50147C9.59038 3.9188 9.23338 4.27681 9.19679 4.29701C9.09326 4.35414 9.00892 4.34216 8.9288 4.25888C8.87167 4.19948 8.85678 4.16143 8.85678 4.07452C8.85678 3.965 8.85681 3.965 9.64291 3.14431C10.3011 2.45722 10.4334 2.30696 10.4558 2.2212C10.4899 2.09094 10.4897 2.03233 10.4549 1.92414C10.3619 1.63563 10.0646 1.49244 9.7984 1.60798C9.73762 1.63435 9.44514 1.91879 8.92944 2.45299C8.18439 3.22479 8.14822 3.25826 8.05905 3.25826C7.92372 3.25826 7.82199 3.14736 7.82199 2.99979C7.82199 2.89132 7.82396 2.88899 8.6073 2.06959C9.4548 1.18314 9.46899 1.16376 9.43873 0.934351C9.40705 0.694137 9.23505 0.524623 9.00114 0.503114C8.90591 0.494331 8.84338 0.503702 8.77681 0.536684ZM1.7364 0.711831C1.17207 0.837789 0.702541 1.31625 0.551682 1.91905C0.487722 2.17457 0.482523 2.59526 0.539462 2.90776C0.717274 3.88367 1.45646 4.8738 2.37507 5.36651C2.8881 5.64171 3.20446 5.72037 3.81962 5.7258L4.21511 5.72928L4.40329 5.82595C4.61469 5.93454 4.52094 5.83562 5.80384 7.30369C6.98954 8.66052 8.38295 10.2139 9.03938 10.9107C9.25104 11.1353 9.38 11.2502 9.48505 11.3076C9.6249 11.3839 9.64752 11.3883 9.9039 11.3883C10.1461 11.3883 10.1898 11.381 10.3153 11.3199C10.7795 11.0938 10.9693 10.487 10.73 9.99426C10.6723 9.8754 10.5524 9.7405 10.1209 9.30865C9.21413 8.40128 7.48427 6.73369 6.21554 5.54386C5.88152 5.23065 5.58488 4.94027 5.55633 4.89861C5.5278 4.85692 5.47458 4.75598 5.43811 4.6743C5.37733 4.5381 5.37137 4.49605 5.36634 4.16729C5.36331 3.97012 5.35466 3.73966 5.3471 3.65516C5.3113 3.25463 5.09998 2.69423 4.82192 2.2624C4.64509 1.98777 4.22881 1.53636 3.95646 1.32393C3.58031 1.03053 3.07641 0.792364 2.65417 0.7084C2.42518 0.662872 1.94777 0.664639 1.7364 0.711831ZM3.96345 7.05621C2.2385 8.63121 1.35737 9.50792 1.10954 9.89588C0.974544 10.1072 0.915857 10.3036 0.916078 10.5433C0.916349 10.8347 0.985114 11.0089 1.17988 11.2113C1.48652 11.53 1.90672 11.5878 2.33311 11.37C2.59733 11.235 3.54106 10.2227 5.10737 8.39427C5.58577 7.83577 5.65025 7.75055 5.62317 7.71227C5.56985 7.63688 4.59103 6.52331 4.57381 6.51847C4.56482 6.51594 4.29015 6.75792 3.96345 7.05621Z" fill="white"/>
</svg>
